<svg width="11" height="12" viewBox="0 0 11 12" fill="none" xmlns="http://www.w3.org/2000/svg">
<path d="M10.0674 1.93852L9.05345 0.822266L5.03369 5.24768L1.01393 0.822266L0 1.93852L4.01976 6.36393L0 10.7894L1.01393 11.9056L5.03369 7.48018L9.05345 11.9056L10.0674 10.7894L6.04762 6.36393L10.0674 1.93852Z" fill="#096A7F" fill-opacity="0.94"/>
<path d="M9.3916 1.9375L5.67773 6.02734L5.37207 6.36426L5.67773 6.7002L9.3916 10.7891L9.05273 11.1611L5.40332 7.14355L5.0332 6.73633L4.66406 7.14355L1.01367 11.1611L0.674805 10.7891L4.38965 6.7002L4.69531 6.36426L4.38965 6.02734L0.674805 1.9375L1.01367 1.56543L4.66406 5.58398L5.0332 5.99121L5.40332 5.58398L9.05273 1.56543L9.3916 1.9375Z" stroke="#096A7F" stroke-opacity="0.94"/>
</svg>
