<svg width="20" height="21" viewBox="0 0 20 21" fill="none" xmlns="http://www.w3.org/2000/svg">
<path d="M5.72 15.2854L7.481 14.7774L18.084 4.04744C18.1676 3.96173 18.2142 3.84657 18.2136 3.72682C18.2131 3.60707 18.1654 3.49235 18.081 3.40744L17.446 2.76544C17.405 2.72327 17.3559 2.68971 17.3018 2.66669C17.2477 2.64368 17.1895 2.63169 17.1306 2.63141C17.0718 2.63113 17.0135 2.64257 16.9591 2.66507C16.9048 2.68756 16.8554 2.72066 16.814 2.76244L6.239 13.4644L5.72 15.2854ZM18.703 1.49344L19.338 2.13644C20.214 3.02344 20.222 4.45444 19.354 5.33244L8.428 16.3904L4.664 17.4744C4.4342 17.5388 4.18826 17.5093 3.98016 17.3925C3.77206 17.2757 3.6188 17.0811 3.554 16.8514C3.50578 16.6863 3.50509 16.5109 3.552 16.3454L4.647 12.5054L15.544 1.47644C15.7512 1.26779 15.9979 1.1025 16.2696 0.990189C16.5414 0.877879 16.8328 0.820805 17.1269 0.822294C17.4209 0.823783 17.7117 0.883807 17.9823 0.998863C18.2529 1.11392 18.4979 1.28271 18.703 1.49344ZM7.184 2.64644C7.68 2.64644 8.082 3.05344 8.082 3.55544C8.08279 3.6741 8.06018 3.79176 8.01547 3.90169C7.97076 4.01161 7.90481 4.11165 7.82141 4.19607C7.73801 4.28049 7.63879 4.34765 7.52942 4.39369C7.42004 4.43974 7.30267 4.46378 7.184 4.46444H3.592C2.6 4.46444 1.796 5.27844 1.796 6.28144V17.1874C1.796 18.1914 2.6 19.0054 3.592 19.0054H14.368C15.36 19.0054 16.165 18.1914 16.165 17.1874V13.5524C16.165 13.0504 16.567 12.6434 17.063 12.6434C17.559 12.6434 17.961 13.0504 17.961 13.5534V17.1874C17.961 19.1954 16.352 20.8234 14.368 20.8234H3.592C1.608 20.8234 0 19.1954 0 17.1874V6.28144C0 4.27444 1.608 2.64644 3.592 2.64644H7.184Z" fill="#096A7F" fill-opacity="0.94"/>
</svg>
