<svg width="22" height="16" viewBox="0 0 22 16" fill="none" xmlns="http://www.w3.org/2000/svg">
<path fill-rule="evenodd" clip-rule="evenodd" d="M11 0.822266C6 0.822266 1.73 3.93227 0 8.32227C1.73 12.7123 6 15.8223 11 15.8223C16 15.8223 20.27 12.7123 22 8.32227C20.27 3.93227 16 0.822266 11 0.822266ZM10.9997 13.3219C8.23975 13.3219 5.99975 11.0819 5.99975 8.32193C5.99975 5.56193 8.23975 3.32193 10.9997 3.32193C13.7597 3.32193 15.9997 5.56193 15.9997 8.32193C15.9997 11.0819 13.7597 13.3219 10.9997 13.3219ZM10.9997 5.32278C9.33966 5.32278 7.99966 6.66278 7.99966 8.32278C7.99966 9.98278 9.33966 11.3228 10.9997 11.3228C12.6597 11.3228 13.9997 9.98278 13.9997 8.32278C13.9997 6.66278 12.6597 5.32278 10.9997 5.32278Z" fill="#096A7F" fill-opacity="0.94"/>
</svg>
