<svg width="37" height="25" viewBox="0 0 37 25" fill="none" xmlns="http://www.w3.org/2000/svg">
<path d="M23.2978 20.3271H25.8722C26.5802 20.3271 27.1594 19.7831 27.1594 19.1183C27.1594 18.4535 26.5802 17.9096 25.8722 17.9096H23.2978C22.5898 17.9096 22.0106 18.4535 22.0106 19.1183C22.0106 19.7831 22.5898 20.3271 23.2978 20.3271ZM13 7.031C13 7.6958 13.5792 8.23973 14.2872 8.23973H34.8828C35.5907 8.23973 36.17 7.6958 36.17 7.031C36.17 6.3662 35.5907 5.82227 34.8828 5.82227H14.2872C13.5792 5.82227 13 6.3662 13 7.031ZM18.1489 14.2834H31.0211C31.7291 14.2834 32.3083 13.7395 32.3083 13.0747C32.3083 12.4099 31.7291 11.8659 31.0211 11.8659H18.1489C17.4409 11.8659 16.8617 12.4099 16.8617 13.0747C16.8617 13.7395 17.4409 14.2834 18.1489 14.2834Z" fill="#096A7F" fill-opacity="0.94"/>
</svg>
