<svg width="16" height="17" viewBox="0 0 16 17" fill="none" xmlns="http://www.w3.org/2000/svg">
<path fill-rule="evenodd" clip-rule="evenodd" d="M7.55501 10.343C7.92171 10.3436 8.28494 10.2719 8.62386 10.1319C8.96278 9.99183 9.27071 9.78627 9.53001 9.52697C9.78931 9.26767 9.99487 8.95973 10.1349 8.62082C10.2749 8.2819 10.3467 7.91867 10.346 7.55197C10.3513 6.80082 10.062 6.07749 9.54031 5.53707C9.01858 4.99664 8.30588 4.68214 7.55501 4.66097C7.18822 4.66018 6.82489 4.73182 6.48585 4.87179C6.14682 5.01176 5.83876 5.2173 5.57936 5.47661C5.31995 5.73592 5.11431 6.04391 4.97422 6.38289C4.83413 6.72187 4.76235 7.08518 4.76301 7.45197C4.77498 8.19808 5.07002 8.91177 5.5884 9.44853C6.10678 9.9853 6.80976 10.305 7.55501 10.343ZM2.86901 2.76697C4.11168 1.5243 5.79711 0.826172 7.55451 0.826172C9.31191 0.826172 10.9973 1.5243 12.24 2.76697C13.4827 4.00964 14.1808 5.69507 14.1808 7.45247C14.1808 9.20987 13.4827 10.8953 12.24 12.138L7.55501 16.823L2.86901 12.138C1.66883 10.8732 0.999756 9.19606 0.999756 7.45247C0.999756 5.70888 1.66883 4.03176 2.86901 2.76697Z" fill="#096A7F" fill-opacity="0.94"/>
</svg>
