<svg width="24" height="28" viewBox="0 0 24 28" fill="none" xmlns="http://www.w3.org/2000/svg">
<path d="M13.6515 15.3937C16.6964 16.0383 19.9736 14.46 21.1756 11.1929C22.0491 8.79904 21.4025 6.02672 19.5429 4.27791C16.4054 1.3143 11.5401 2.10206 9.41399 5.58467C7.93024 8.01505 8.22327 11.0316 9.92676 13.1198L7.45384 17.1704L5.59148 16.0334C4.56718 15.4081 3.21748 15.7345 2.59214 16.7588C1.96681 17.7831 2.29323 19.1328 3.31753 19.7582L5.17989 20.8951C4.55455 21.9194 4.88097 23.2691 5.90527 23.8945C6.92957 24.5198 8.27927 24.1934 8.90461 23.1691L13.6515 15.3937ZM13.1387 7.85862C13.764 6.83432 15.1137 6.5079 16.138 7.13323C17.1623 7.75857 17.4888 9.10827 16.8634 10.1326C16.2381 11.1569 14.8884 11.4833 13.8641 10.858C12.8398 10.2326 12.5134 8.88292 13.1387 7.85862Z" fill="#096A7F" fill-opacity="0.94"/>
</svg>
