<svg width="82" height="13" viewBox="0 0 82 13" fill="none" xmlns="http://www.w3.org/2000/svg">
<path d="M6.4 0.822266L8.4 4.75977L12.8 5.38977L9.6 8.46102L10.32 12.7923L6.4 10.7448L2.48 12.7923L3.2 8.46102L0 5.38977L4.4 4.75977L6.4 0.822266Z" fill="#096A7F" fill-opacity="0.94"/>
<path d="M23.4667 0.822266L25.4667 4.75977L29.8667 5.38977L26.6667 8.46102L27.3867 12.7923L23.4667 10.7448L19.5467 12.7923L20.2667 8.46102L17.0667 5.38977L21.4667 4.75977L23.4667 0.822266Z" fill="#096A7F" fill-opacity="0.94"/>
<path d="M40.5333 0.822266L42.5333 4.75977L46.9333 5.38977L43.7333 8.46102L44.4533 12.7923L40.5333 10.7448L36.6133 12.7923L37.3333 8.46102L34.1333 5.38977L38.5333 4.75977L40.5333 0.822266Z" fill="#096A7F" fill-opacity="0.94"/>
<path d="M57.6 0.822266L59.6 4.75977L64 5.38977L60.8 8.46102L61.52 12.7923L57.6 10.7448L53.68 12.7923L54.4 8.46102L51.2 5.38977L55.6 4.75977L57.6 0.822266Z" fill="#096A7F" fill-opacity="0.94"/>
<path opacity="0.5" d="M74.6666 0.822266L76.6666 4.75977L81.0666 5.38977L77.8666 8.46102L78.5866 12.7923L74.6666 10.7448L70.7466 12.7923L71.4666 8.46102L68.2666 5.38977L72.6666 4.75977L74.6666 0.822266Z" fill="#7F7F7F"/>
</svg>
