<svg width="24" height="25" viewBox="0 0 24 25" fill="none" xmlns="http://www.w3.org/2000/svg">
<path fill-rule="evenodd" clip-rule="evenodd" d="M14.76 14.0923L20.49 19.8223L19 21.3123L13.27 15.5823C12.2 16.3523 10.91 16.8223 9.5 16.8223C5.91 16.8223 3 13.9123 3 10.3223C3 6.73227 5.91 3.82227 9.5 3.82227C13.09 3.82227 16 6.73227 16 10.3223C16 11.7323 15.53 13.0223 14.76 14.0923ZM9.5 5.82227C7.01 5.82227 5 7.83227 5 10.3223C5 12.8123 7.01 14.8223 9.5 14.8223C11.99 14.8223 14 12.8123 14 10.3223C14 7.83227 11.99 5.82227 9.5 5.82227Z" fill="#096A7F" fill-opacity="0.94"/>
</svg>
